<svg width="46" height="47" viewBox="0 0 46 47" fill="none" xmlns="http://www.w3.org/2000/svg">
<path d="M0 5.28125C0 2.53809 2.20759 0.3125 4.92857 0.3125H14.7857C17.5067 0.3125 19.7143 2.53809 19.7143 5.28125V15.2188C19.7143 17.9619 17.5067 20.1875 14.7857 20.1875H4.92857C2.20759 20.1875 0 17.9619 0 15.2188V5.28125ZM6.57143 6.9375V13.5625H13.1429V6.9375H6.57143ZM0 31.7812C0 29.0381 2.20759 26.8125 4.92857 26.8125H14.7857C17.5067 26.8125 19.7143 29.0381 19.7143 31.7812V41.7188C19.7143 44.4619 17.5067 46.6875 14.7857 46.6875H4.92857C2.20759 46.6875 0 44.4619 0 41.7188V31.7812ZM6.57143 33.4375V40.0625H13.1429V33.4375H6.57143ZM31.2143 0.3125H41.0714C43.7924 0.3125 46 2.53809 46 5.28125V15.2188C46 17.9619 43.7924 20.1875 41.0714 20.1875H31.2143C28.4933 20.1875 26.2857 17.9619 26.2857 15.2188V5.28125C26.2857 2.53809 28.4933 0.3125 31.2143 0.3125ZM39.4286 6.9375H32.8571V13.5625H39.4286V6.9375ZM26.2857 28.4688C26.2857 27.5578 27.025 26.8125 27.9286 26.8125H34.5C35.4036 26.8125 36.1429 27.5578 36.1429 28.4688C36.1429 29.3797 36.8821 30.125 37.7857 30.125H41.0714C41.975 30.125 42.7143 29.3797 42.7143 28.4688C42.7143 27.5578 43.4536 26.8125 44.3571 26.8125C45.2607 26.8125 46 27.5578 46 28.4688V38.4062C46 39.3172 45.2607 40.0625 44.3571 40.0625H37.7857C36.8821 40.0625 36.1429 39.3172 36.1429 38.4062C36.1429 37.4953 35.4036 36.75 34.5 36.75C33.5964 36.75 32.8571 37.4953 32.8571 38.4062V45.0312C32.8571 45.9422 32.1179 46.6875 31.2143 46.6875H27.9286C27.025 46.6875 26.2857 45.9422 26.2857 45.0312V28.4688ZM37.7857 46.6875C37.35 46.6875 36.9321 46.513 36.624 46.2024C36.3159 45.8918 36.1429 45.4705 36.1429 45.0312C36.1429 44.592 36.3159 44.1707 36.624 43.8601C36.9321 43.5495 37.35 43.375 37.7857 43.375C38.2214 43.375 38.6393 43.5495 38.9474 43.8601C39.2555 44.1707 39.4286 44.592 39.4286 45.0312C39.4286 45.4705 39.2555 45.8918 38.9474 46.2024C38.6393 46.513 38.2214 46.6875 37.7857 46.6875ZM44.3571 46.6875C43.9214 46.6875 43.5036 46.513 43.1955 46.2024C42.8874 45.8918 42.7143 45.4705 42.7143 45.0312C42.7143 44.592 42.8874 44.1707 43.1955 43.8601C43.5036 43.5495 43.9214 43.375 44.3571 43.375C44.7929 43.375 45.2107 43.5495 45.5188 43.8601C45.8269 44.1707 46 44.592 46 45.0312C46 45.4705 45.8269 45.8918 45.5188 46.2024C45.2107 46.513 44.7929 46.6875 44.3571 46.6875Z" fill="black"/>
</svg>
